<svg width="64" height="64" viewBox="0 0 64 64" fill="none" xmlns="http://www.w3.org/2000/svg">
<path d="M62 32C62.0002 34.7691 61.1792 37.476 59.6409 39.7785C58.1025 42.081 55.916 43.8755 53.3577 44.9353C50.7994 45.995 47.9843 46.2722 45.2684 45.7319C42.5526 45.1917 40.0579 43.8581 38.1 41.9L38.0175 41.8125L23.03 24.8875C21.6268 23.5007 19.8448 22.56 17.9082 22.1836C15.9717 21.8073 13.967 22.0122 12.1466 22.7725C10.3262 23.5328 8.77135 24.8146 7.67773 26.4565C6.58411 28.0984 6.00058 30.0272 6.00058 32C6.00058 33.9728 6.58411 35.9015 7.67773 37.5435C8.77135 39.1854 10.3262 40.4672 12.1466 41.2275C13.967 41.9878 15.9717 42.1927 17.9082 41.8163C19.8448 41.44 21.6268 40.4992 23.03 39.1125L25.16 36.7075C25.3341 36.5105 25.5454 36.3497 25.7817 36.2344C26.018 36.1191 26.2747 36.0514 26.5371 36.0353C26.7996 36.0191 27.0626 36.0549 27.3112 36.1404C27.5599 36.2259 27.7892 36.3596 27.9862 36.5337C28.1832 36.7079 28.344 36.9192 28.4593 37.1554C28.5746 37.3917 28.6423 37.6484 28.6584 37.9109C28.6746 38.1733 28.6388 38.4364 28.5533 38.685C28.4678 38.9336 28.3341 39.163 28.16 39.36L25.9875 41.8125L25.905 41.9C23.947 43.8578 21.4524 45.191 18.7367 45.7311C16.021 46.2712 13.2062 45.9938 10.6481 44.9342C8.09 43.8745 5.90358 42.0801 4.36531 39.7778C2.82703 37.4756 2.00598 34.7689 2.00598 32C2.00598 29.2311 2.82703 26.5244 4.36531 24.2221C5.90358 21.9199 8.09 20.1255 10.6481 19.0658C13.2062 18.0061 16.021 17.7288 18.7367 18.2689C21.4524 18.809 23.947 20.1422 25.905 22.1L25.9875 22.1875L40.975 39.1125C42.3781 40.4992 44.1601 41.44 46.0967 41.8163C48.0333 42.1927 50.0379 41.9878 51.8583 41.2275C53.6787 40.4672 55.2336 39.1854 56.3272 37.5435C57.4208 35.9015 58.0044 33.9728 58.0044 32C58.0044 30.0272 57.4208 28.0984 56.3272 26.4565C55.2336 24.8146 53.6787 23.5328 51.8583 22.7725C50.0379 22.0122 48.0333 21.8073 46.0967 22.1836C44.1601 22.56 42.3781 23.5007 40.975 24.8875L38.845 27.2925C38.4932 27.6903 37.9979 27.9321 37.4678 27.9647C36.9378 27.9973 36.4165 27.818 36.0187 27.4662C35.6209 27.1145 35.3791 26.6191 35.3465 26.0891C35.3139 25.5591 35.4932 25.0378 35.845 24.64L38.0175 22.1875L38.1 22.1C40.0579 20.1418 42.5526 18.8083 45.2684 18.268C47.9843 17.7278 50.7994 18.005 53.3577 19.0647C55.916 20.1244 58.1025 21.919 59.6409 24.2215C61.1792 26.5239 62.0002 29.2309 62 32Z" fill="#335AA6"/>
</svg>
